<svg xmlns="http://www.w3.org/2000/svg" xmlns:xlink="http://www.w3.org/1999/xlink" width="500" zoomAndPan="magnify" viewBox="0 0 375 374.999991" height="500" preserveAspectRatio="xMidYMid meet" version="1.0"><defs><clipPath id="id1"><path d="M 13.039062 13.039062 L 361.789062 13.039062 L 361.789062 361.789062 L 13.039062 361.789062 Z M 13.039062 13.039062 " clip-rule="nonzero"/></clipPath><clipPath id="id2"><path d="M 237.355469 153.285156 C 232.242188 144.660156 224.984375 137.472656 216.292969 132.464844 C 216.132812 132.328125 215.949219 132.238281 215.765625 132.144531 C 210.222656 129.027344 204.113281 126.816406 197.636719 125.660156 C 197.367188 125.582031 197.089844 125.523438 196.804688 125.535156 C 193.738281 125.03125 190.617188 124.703125 187.414062 124.703125 C 184.210938 124.703125 181.089844 125.03125 178.027344 125.535156 C 177.738281 125.523438 177.464844 125.582031 177.191406 125.660156 C 170.703125 126.820312 164.589844 129.035156 159.035156 132.160156 C 158.863281 132.25 158.695312 132.335938 158.542969 132.460938 C 149.847656 137.46875 142.589844 144.65625 137.472656 153.285156 C 137.222656 153.550781 137.039062 153.863281 136.910156 154.210938 C 132.109375 162.65625 129.332031 172.394531 129.332031 182.78125 C 129.332031 193.171875 132.109375 202.910156 136.910156 211.355469 C 137.035156 211.703125 137.222656 212.015625 137.472656 212.28125 C 142.554688 220.851562 149.757812 228 158.382812 233.007812 C 158.664062 233.28125 159 233.472656 159.359375 233.601562 C 164.777344 236.605469 170.730469 238.734375 177.027344 239.878906 C 177.316406 239.980469 177.621094 240.046875 177.9375 240.046875 C 177.964844 240.046875 177.996094 240.03125 178.023438 240.03125 C 181.085938 240.53125 184.210938 240.863281 187.414062 240.863281 C 190.613281 240.863281 193.738281 240.53125 196.800781 240.03125 C 196.832031 240.03125 196.859375 240.046875 196.886719 240.046875 C 197.199219 240.046875 197.503906 239.980469 197.796875 239.878906 C 204.09375 238.738281 210.046875 236.605469 215.46875 233.601562 C 215.828125 233.46875 216.164062 233.28125 216.445312 233.007812 C 225.070312 228 232.269531 220.851562 237.355469 212.28125 C 237.605469 212.015625 237.789062 211.703125 237.917969 211.355469 C 242.714844 202.910156 245.492188 193.171875 245.492188 182.78125 C 245.492188 172.394531 242.714844 162.65625 237.917969 154.210938 C 237.789062 153.863281 237.601562 153.550781 237.355469 153.285156 Z M 233.691406 207.640625 L 227.429688 207.640625 C 229.507812 200.285156 230.609375 192.917969 230.839844 185.546875 L 239.820312 185.546875 C 239.402344 193.503906 237.269531 201.003906 233.691406 207.640625 Z M 201.339844 233.398438 C 203.851562 226.65625 205.863281 219.910156 207.378906 213.171875 L 219.777344 213.171875 C 217.847656 218.441406 215.425781 223.699219 212.492188 228.945312 C 209 230.851562 205.25 232.320312 201.339844 233.398438 Z M 190.179688 235.191406 L 190.179688 213.175781 L 201.695312 213.175781 C 200.019531 220.355469 197.761719 227.546875 194.90625 234.734375 C 193.351562 234.957031 191.773438 235.105469 190.179688 235.191406 Z M 179.917969 234.734375 C 177.0625 227.542969 174.804688 220.355469 173.128906 213.171875 L 184.648438 213.171875 L 184.648438 235.1875 C 183.050781 235.105469 181.472656 234.957031 179.917969 234.734375 Z M 162.332031 228.945312 C 159.398438 223.699219 156.976562 218.441406 155.046875 213.171875 L 167.445312 213.171875 C 168.960938 219.910156 170.96875 226.65625 173.484375 233.398438 C 169.574219 232.320312 165.824219 230.851562 162.332031 228.945312 Z M 135.003906 185.546875 L 143.984375 185.546875 C 144.214844 192.917969 145.316406 200.285156 147.394531 207.640625 L 141.136719 207.640625 C 137.554688 201.003906 135.421875 193.503906 135.003906 185.546875 Z M 141.132812 157.925781 L 147.398438 157.925781 C 145.320312 165.28125 144.214844 172.648438 143.984375 180.015625 L 135.003906 180.015625 C 135.421875 172.066406 137.554688 164.5625 141.132812 157.925781 Z M 173.433594 132.183594 C 170.882812 138.890625 168.859375 145.628906 167.339844 152.394531 L 155.058594 152.394531 C 156.988281 147.121094 159.414062 141.859375 162.351562 136.609375 C 165.820312 134.71875 169.550781 133.257812 173.433594 132.183594 Z M 184.648438 130.375 L 184.648438 152.394531 L 173.023438 152.394531 C 174.710938 145.175781 176.992188 137.984375 179.902344 130.835938 C 181.464844 130.609375 183.046875 130.460938 184.648438 130.375 Z M 194.921875 130.835938 C 197.832031 137.984375 200.113281 145.175781 201.800781 152.394531 L 190.179688 152.394531 L 190.179688 130.375 C 191.78125 130.460938 193.359375 130.609375 194.921875 130.835938 Z M 212.476562 136.609375 C 215.414062 141.859375 217.835938 147.121094 219.769531 152.394531 L 207.488281 152.394531 C 205.96875 145.628906 203.941406 138.890625 201.394531 132.183594 C 205.277344 133.257812 209.003906 134.71875 212.476562 136.609375 Z M 210.820312 180.015625 C 210.6875 172.628906 209.945312 165.265625 208.605469 157.925781 L 221.597656 157.925781 C 223.800781 165.28125 225.007812 172.648438 225.253906 180.015625 Z M 184.648438 185.546875 L 184.648438 207.640625 L 171.941406 207.640625 C 170.523438 200.265625 169.742188 192.898438 169.566406 185.546875 Z M 169.550781 180.015625 C 169.6875 172.628906 170.449219 165.261719 171.847656 157.925781 L 184.648438 157.925781 L 184.648438 180.015625 Z M 190.179688 185.546875 L 205.257812 185.546875 C 205.085938 192.898438 204.300781 200.265625 202.882812 207.640625 L 190.179688 207.640625 Z M 190.179688 180.015625 L 190.179688 157.925781 L 202.976562 157.925781 C 204.371094 165.261719 205.136719 172.628906 205.277344 180.015625 Z M 166.214844 157.925781 C 164.875 165.265625 164.132812 172.632812 164 180.015625 L 149.566406 180.015625 C 149.8125 172.644531 151.023438 165.277344 153.222656 157.925781 Z M 149.566406 185.546875 L 164.019531 185.546875 C 164.1875 192.898438 164.953125 200.265625 166.3125 207.640625 L 153.214844 207.640625 C 151.015625 200.285156 149.808594 192.917969 149.566406 185.546875 Z M 208.511719 207.640625 C 209.871094 200.265625 210.636719 192.898438 210.804688 185.546875 L 225.257812 185.546875 C 225.015625 192.917969 223.808594 200.285156 221.605469 207.640625 Z M 230.839844 180.015625 C 230.605469 172.648438 229.503906 165.28125 227.425781 157.925781 L 233.691406 157.925781 C 237.269531 164.5625 239.402344 172.066406 239.820312 180.015625 Z M 230.203125 152.394531 L 225.667969 152.394531 C 224.625 149.382812 223.398438 146.371094 222.046875 143.367188 C 225.101562 146.050781 227.839844 149.074219 230.203125 152.394531 Z M 152.777344 143.367188 C 151.425781 146.371094 150.199219 149.382812 149.15625 152.394531 L 144.621094 152.394531 C 146.988281 149.074219 149.726562 146.050781 152.777344 143.367188 Z M 144.621094 213.171875 L 149.148438 213.171875 C 150.1875 216.179688 151.410156 219.179688 152.757812 222.183594 C 149.714844 219.503906 146.980469 216.484375 144.621094 213.171875 Z M 222.0625 222.183594 C 223.414062 219.183594 224.636719 216.179688 225.671875 213.175781 L 230.199219 213.175781 C 227.84375 216.484375 225.109375 219.503906 222.0625 222.183594 Z M 252.9375 115.890625 C 234.957031 104.421875 215.195312 96.222656 194.199219 91.507812 C 189.695312 90.496094 185.128906 90.496094 180.625 91.507812 C 159.632812 96.222656 139.871094 104.425781 121.886719 115.890625 C 118.417969 118.105469 116.34375 121.933594 116.34375 126.128906 L 116.34375 209.949219 C 116.34375 221.410156 119.71875 232.355469 126.105469 241.605469 C 139.75 261.367188 159.300781 271.773438 186.421875 282.160156 C 186.742188 282.28125 187.078125 282.34375 187.414062 282.34375 C 187.746094 282.34375 188.085938 282.28125 188.402344 282.160156 C 215.523438 271.773438 235.074219 261.363281 248.71875 241.605469 C 255.105469 232.355469 258.480469 221.40625 258.480469 209.949219 L 258.480469 126.128906 C 258.480469 121.929688 256.40625 118.101562 252.9375 115.890625 Z M 252.949219 209.945312 C 252.949219 220.277344 249.914062 230.140625 244.167969 238.460938 C 231.496094 256.8125 213.035156 266.730469 187.414062 276.617188 C 161.789062 266.730469 143.328125 256.8125 130.660156 238.460938 C 124.914062 230.140625 121.878906 220.28125 121.878906 209.945312 L 121.878906 126.128906 C 121.878906 123.867188 123.023438 121.726562 124.863281 120.550781 C 142.304688 109.433594 161.472656 101.476562 181.839844 96.902344 C 183.6875 96.484375 185.550781 96.277344 187.414062 96.277344 C 189.277344 96.277344 191.140625 96.484375 192.992188 96.902344 C 213.355469 101.476562 232.527344 109.433594 249.964844 120.550781 C 251.808594 121.726562 252.953125 123.863281 252.953125 126.128906 L 252.953125 209.945312 Z M 304.464844 79.910156 C 302.9375 79.910156 301.699219 78.671875 301.699219 77.144531 L 301.699219 22.472656 C 301.699219 20.941406 302.9375 19.707031 304.464844 19.707031 C 305.988281 19.707031 307.230469 20.941406 307.230469 22.472656 L 307.230469 77.144531 C 307.230469 78.671875 305.988281 79.910156 304.464844 79.910156 Z M 112.085938 72.578125 C 110.558594 72.578125 109.320312 71.339844 109.320312 69.8125 L 109.320312 20.574219 C 109.320312 19.042969 110.558594 17.808594 112.085938 17.808594 C 113.609375 17.808594 114.851562 19.042969 114.851562 20.574219 L 114.851562 69.8125 C 114.851562 71.335938 113.609375 72.578125 112.085938 72.578125 Z M 13.175781 179.949219 C 13.175781 178.421875 14.414062 177.183594 15.941406 177.183594 L 62.8125 177.1875 C 64.335938 177.1875 65.578125 178.425781 65.578125 179.953125 C 65.578125 181.484375 64.335938 182.71875 62.8125 182.71875 L 15.941406 182.714844 C 14.414062 182.714844 13.175781 181.476562 13.175781 179.949219 Z M 60.195312 305.316406 C 60.195312 306.847656 58.957031 308.082031 57.429688 308.082031 L 15.941406 308.082031 C 14.414062 308.082031 13.175781 306.847656 13.175781 305.316406 C 13.175781 303.789062 14.414062 302.550781 15.941406 302.550781 L 57.429688 302.550781 C 58.957031 302.550781 60.195312 303.789062 60.195312 305.316406 Z M 146.5 307.035156 L 146.5 358.976562 C 146.5 360.503906 145.261719 361.742188 143.734375 361.742188 C 142.207031 361.742188 140.96875 360.503906 140.96875 358.976562 L 140.96875 307.035156 C 140.96875 305.507812 142.207031 304.269531 143.734375 304.269531 C 145.261719 304.269531 146.5 305.507812 146.5 307.035156 Z M 303.613281 285.667969 L 303.613281 359.023438 C 303.613281 360.550781 302.371094 361.789062 300.847656 361.789062 C 299.320312 361.789062 298.082031 360.550781 298.082031 359.023438 L 298.082031 285.667969 C 298.082031 284.136719 299.320312 282.902344 300.847656 282.902344 C 302.371094 282.902344 303.613281 284.140625 303.613281 285.667969 Z M 361.648438 226.996094 C 361.648438 228.523438 360.410156 229.761719 358.882812 229.761719 L 316.414062 229.761719 C 314.886719 229.761719 313.648438 228.523438 313.648438 226.996094 C 313.648438 225.464844 314.886719 224.230469 316.414062 224.230469 L 358.882812 224.230469 C 360.410156 224.230469 361.648438 225.464844 361.648438 226.996094 Z M 13.175781 93.519531 C 13.175781 91.988281 14.414062 90.753906 15.941406 90.753906 L 39.378906 90.753906 C 40.902344 90.753906 42.144531 91.988281 42.144531 93.519531 C 42.144531 95.046875 40.902344 96.285156 39.378906 96.285156 L 15.941406 96.285156 C 14.414062 96.285156 13.175781 95.046875 13.175781 93.519531 Z M 309.0625 163.59375 L 328.410156 175.640625 C 328.863281 175.925781 329.371094 176.058594 329.867188 176.058594 C 330.792969 176.058594 331.695312 175.597656 332.21875 174.753906 C 333.027344 173.457031 332.628906 171.753906 331.332031 170.945312 L 312.140625 158.996094 L 315.0625 154.636719 L 326.03125 161.652344 C 326.496094 161.945312 327.007812 162.085938 327.519531 162.085938 C 328.433594 162.085938 329.328125 161.636719 329.851562 160.8125 C 330.675781 159.523438 330.300781 157.8125 329.011719 156.988281 L 318.140625 150.039062 L 327.511719 136.054688 C 328.265625 136.261719 329.050781 136.410156 329.871094 136.410156 C 334.804688 136.410156 338.816406 132.398438 338.816406 127.464844 C 338.816406 122.535156 334.804688 118.523438 329.871094 118.523438 C 324.941406 118.523438 320.925781 122.535156 320.925781 127.464844 C 320.925781 129.566406 321.683594 131.472656 322.902344 133.003906 L 293.796875 176.433594 L 268.417969 176.433594 L 268.417969 168.910156 L 287.777344 168.910156 C 289.304688 168.910156 290.542969 167.675781 290.542969 166.144531 C 290.542969 164.613281 289.304688 163.378906 287.777344 163.378906 L 268.417969 163.378906 L 268.417969 121.023438 C 268.417969 116.980469 266.457031 113.230469 263.175781 110.984375 C 257.371094 107.015625 251.46875 103.4375 245.492188 100.214844 L 245.492188 81.421875 C 245.492188 79.890625 244.253906 78.65625 242.726562 78.65625 C 241.199219 78.65625 239.960938 79.890625 239.960938 81.421875 L 239.960938 97.394531 C 237.847656 96.347656 235.722656 95.355469 233.589844 94.398438 L 233.589844 61.582031 L 278.675781 18.070312 C 279.773438 17.007812 279.808594 15.257812 278.746094 14.160156 C 277.6875 13.066406 275.933594 13.027344 274.835938 14.089844 L 228.90625 58.417969 C 228.367188 58.9375 228.058594 59.65625 228.058594 60.40625 L 228.058594 91.972656 C 216.367188 87.203125 204.417969 83.792969 192.28125 81.8125 C 191.582031 81.699219 190.878906 81.621094 190.175781 81.558594 L 190.175781 38.835938 C 190.175781 38.042969 189.835938 37.285156 189.242188 36.765625 L 170.730469 20.398438 C 169.585938 19.390625 167.835938 19.496094 166.828125 20.640625 C 165.816406 21.78125 165.921875 23.53125 167.066406 24.542969 L 184.648438 40.082031 L 184.648438 81.554688 C 183.945312 81.617188 183.242188 81.695312 182.542969 81.808594 C 179.550781 82.296875 176.566406 82.878906 173.597656 83.539062 L 173.597656 72.238281 C 173.597656 70.707031 172.359375 69.472656 170.832031 69.472656 C 169.304688 69.472656 168.066406 70.707031 168.066406 72.238281 L 168.066406 84.933594 C 159.699219 87.105469 151.4375 89.953125 143.304688 93.476562 L 143.304688 79.625 C 143.304688 78.09375 142.0625 76.859375 140.539062 76.859375 C 139.011719 76.859375 137.773438 78.09375 137.773438 79.625 L 137.773438 95.929688 C 128.886719 100.144531 120.164062 105.160156 111.648438 110.980469 C 108.363281 113.226562 106.40625 116.980469 106.40625 121.019531 L 106.40625 140.390625 L 86.382812 140.390625 C 84.855469 140.390625 83.617188 141.625 83.617188 143.15625 C 83.617188 144.6875 84.855469 145.921875 86.382812 145.921875 L 106.40625 145.921875 L 106.40625 152.390625 L 76.152344 152.390625 L 76.152344 88.085938 C 79.726562 86.914062 82.332031 83.582031 82.332031 79.625 C 82.332031 74.691406 78.316406 70.683594 73.386719 70.683594 C 68.457031 70.683594 64.441406 74.691406 64.441406 79.625 C 64.441406 83.582031 67.046875 86.914062 70.621094 88.085938 L 70.621094 155.160156 C 70.621094 156.6875 71.859375 157.925781 73.386719 157.925781 L 106.402344 157.925781 L 106.402344 197.90625 L 43.433594 197.90625 C 42.257812 194.332031 38.929688 191.726562 34.96875 191.726562 C 30.039062 191.726562 26.023438 195.738281 26.023438 200.671875 C 26.023438 205.601562 30.039062 209.613281 34.96875 209.613281 C 38.929688 209.613281 42.257812 207.011719 43.433594 203.4375 L 51.5 203.4375 L 51.5 233.769531 C 51.5 235.300781 52.738281 236.535156 54.265625 236.535156 C 55.792969 236.535156 57.03125 235.300781 57.03125 233.769531 L 57.03125 203.4375 L 106.40625 203.4375 L 106.40625 205.730469 C 106.40625 206.832031 106.492188 207.925781 106.535156 209.019531 L 85.601562 209.019531 C 84.078125 209.019531 82.835938 210.257812 82.835938 211.785156 C 82.835938 213.316406 84.078125 214.550781 85.601562 214.550781 L 106.949219 214.550781 C 108.378906 227.542969 112.933594 239.90625 120.164062 250.257812 L 98.394531 271.542969 C 97.300781 272.613281 97.28125 274.363281 98.351562 275.453125 C 98.890625 276.007812 99.609375 276.285156 100.328125 276.285156 C 101.023438 276.285156 101.722656 276.023438 102.261719 275.5 L 123.492188 254.738281 C 125.835938 257.660156 128.347656 260.457031 131.027344 263.109375 L 98.402344 294.636719 C 97.863281 295.15625 97.558594 295.875 97.558594 296.625 L 97.558594 320.378906 L 66.992188 320.378906 C 65.464844 320.378906 64.226562 321.613281 64.226562 323.144531 C 64.226562 324.671875 65.464844 325.910156 66.992188 325.910156 L 97.558594 325.910156 L 97.558594 335.902344 C 93.984375 337.074219 91.378906 340.402344 91.378906 344.363281 C 91.378906 349.292969 95.394531 353.304688 100.324219 353.304688 C 105.253906 353.304688 109.269531 349.292969 109.269531 344.363281 C 109.269531 340.402344 106.664062 337.074219 103.089844 335.902344 L 103.089844 297.796875 L 135.078125 266.890625 C 148.148438 278.472656 164.742188 287.214844 184.648438 292.992188 L 184.648438 359.023438 C 184.648438 360.550781 185.886719 361.789062 187.414062 361.789062 C 188.9375 361.789062 190.179688 360.550781 190.179688 359.023438 L 190.179688 292.988281 C 206.660156 288.207031 220.875 281.390625 232.699219 272.609375 L 232.699219 292.636719 C 232.699219 294.167969 233.9375 295.402344 235.464844 295.402344 C 236.988281 295.402344 238.230469 294.167969 238.230469 292.636719 L 238.230469 268.214844 C 240.480469 266.292969 242.636719 264.300781 244.6875 262.222656 L 244.6875 308.074219 L 223.472656 308.074219 C 221.945312 308.074219 220.707031 309.3125 220.707031 310.839844 C 220.707031 312.371094 221.945312 313.605469 223.472656 313.605469 L 244.6875 313.605469 L 244.6875 318.363281 C 241.117188 319.535156 238.511719 322.867188 238.511719 326.828125 C 238.511719 331.757812 242.523438 335.769531 247.453125 335.769531 C 252.386719 335.769531 256.398438 331.757812 256.398438 326.828125 C 256.398438 322.867188 253.792969 319.535156 250.21875 318.363281 L 250.21875 296.453125 L 264.074219 296.453125 C 265.601562 296.453125 266.839844 295.21875 266.839844 293.6875 C 266.839844 292.160156 265.601562 290.921875 264.074219 290.921875 L 250.21875 290.921875 L 250.21875 256.121094 C 251.144531 255.011719 252.039062 253.882812 252.910156 252.734375 L 272.03125 272.691406 C 272.574219 273.257812 273.300781 273.546875 274.027344 273.546875 C 274.714844 273.546875 275.40625 273.292969 275.941406 272.777344 C 277.042969 271.722656 277.082031 269.96875 276.023438 268.871094 L 256.132812 248.109375 C 257.144531 246.546875 258.082031 244.945312 258.972656 243.304688 L 269.257812 253.410156 C 269.792969 253.9375 270.496094 254.203125 271.195312 254.203125 C 271.910156 254.203125 272.628906 253.925781 273.167969 253.375 C 274.238281 252.285156 274.222656 250.535156 273.132812 249.464844 L 261.546875 238.082031 C 266 228.113281 268.421875 217.070312 268.421875 205.796875 L 268.421875 181.96875 L 292.507812 181.96875 L 292.507812 223.503906 C 292.507812 225.035156 293.746094 226.269531 295.273438 226.269531 C 296.800781 226.269531 298.039062 225.035156 298.039062 223.503906 L 298.039062 180.042969 Z M 73.386719 76.214844 C 75.265625 76.214844 76.800781 77.746094 76.800781 79.625 C 76.800781 81.507812 75.265625 83.035156 73.386719 83.035156 C 71.503906 83.035156 69.972656 81.503906 69.972656 79.625 C 69.972656 77.746094 71.503906 76.214844 73.386719 76.214844 Z M 34.96875 204.082031 C 33.089844 204.082031 31.554688 202.550781 31.554688 200.671875 C 31.554688 198.789062 33.089844 197.257812 34.96875 197.257812 C 36.851562 197.257812 38.382812 198.789062 38.382812 200.671875 C 38.382812 202.550781 36.851562 204.082031 34.96875 204.082031 Z M 100.324219 347.769531 C 98.441406 347.769531 96.910156 346.238281 96.910156 344.359375 C 96.910156 342.476562 98.445312 340.949219 100.324219 340.949219 C 102.207031 340.949219 103.738281 342.480469 103.738281 344.359375 C 103.738281 346.242188 102.207031 347.769531 100.324219 347.769531 Z M 247.453125 330.242188 C 245.570312 330.242188 244.039062 328.710938 244.039062 326.828125 C 244.039062 324.949219 245.570312 323.417969 247.453125 323.417969 C 249.332031 323.417969 250.863281 324.949219 250.863281 326.828125 C 250.863281 328.710938 249.335938 330.242188 247.453125 330.242188 Z M 262.890625 205.796875 C 262.890625 221.558594 257.921875 236.863281 248.894531 248.898438 C 244.4375 254.84375 239.34375 260.191406 233.59375 264.976562 C 233.558594 265.003906 233.523438 265.027344 233.488281 265.058594 C 221.246094 275.222656 206.011719 282.8125 187.414062 288.050781 C 166.546875 282.175781 149.910156 273.332031 136.988281 261.21875 C 136.984375 261.214844 136.984375 261.207031 136.980469 261.207031 C 136.976562 261.199219 136.964844 261.199219 136.960938 261.191406 C 132.949219 257.429688 129.285156 253.359375 125.972656 248.949219 C 116.925781 236.902344 111.941406 221.550781 111.941406 205.730469 L 111.941406 121.023438 C 111.941406 118.808594 113 116.761719 114.773438 115.550781 C 136.539062 100.671875 159.640625 91.160156 183.4375 87.269531 C 184.761719 87.054688 186.085938 86.945312 187.414062 86.945312 C 188.742188 86.945312 190.074219 87.054688 191.390625 87.269531 C 215.1875 91.15625 238.289062 100.671875 260.054688 115.550781 C 261.832031 116.761719 262.890625 118.808594 262.890625 121.023438 Z M 329.871094 124.054688 C 331.753906 124.054688 333.285156 125.589844 333.285156 127.46875 C 333.285156 129.351562 331.753906 130.882812 329.871094 130.882812 C 327.988281 130.882812 326.457031 129.351562 326.457031 127.46875 C 326.457031 125.589844 327.992188 124.054688 329.871094 124.054688 Z M 329.871094 124.054688 " clip-rule="nonzero"/></clipPath><linearGradient x1="63" gradientTransform="matrix(2.765662, 0, 0, 2.765662, 13.175664, 13.31394)" y1="-0.0999982" x2="63" gradientUnits="userSpaceOnUse" y2="126" id="id3"><stop stop-opacity="1" stop-color="rgb(7.798767%, 36.499023%, 62.69989%)" offset="0"/><stop stop-opacity="1" stop-color="rgb(7.771301%, 36.546326%, 62.554932%)" offset="0.0078125"/><stop stop-opacity="1" stop-color="rgb(7.713318%, 36.64856%, 62.249756%)" offset="0.015625"/><stop stop-opacity="1" stop-color="rgb(7.652283%, 36.755371%, 61.927795%)" offset="0.0234375"/><stop stop-opacity="1" stop-color="rgb(7.591248%, 36.863708%, 61.607361%)" offset="0.03125"/><stop stop-opacity="1" stop-color="rgb(7.530212%, 36.97052%, 61.2854%)" offset="0.0390625"/><stop stop-opacity="1" stop-color="rgb(7.470703%, 37.077332%, 60.96344%)" offset="0.046875"/><stop stop-opacity="1" stop-color="rgb(7.409668%, 37.184143%, 60.643005%)" offset="0.0546875"/><stop stop-opacity="1" stop-color="rgb(7.348633%, 37.290955%, 60.321045%)" offset="0.0625"/><stop stop-opacity="1" stop-color="rgb(7.287598%, 37.399292%, 60.00061%)" offset="0.0703125"/><stop stop-opacity="1" stop-color="rgb(7.226562%, 37.506104%, 59.67865%)" offset="0.078125"/><stop stop-opacity="1" stop-color="rgb(7.165527%, 37.612915%, 59.356689%)" offset="0.0859375"/><stop stop-opacity="1" stop-color="rgb(7.104492%, 37.719727%, 59.036255%)" offset="0.09375"/><stop stop-opacity="1" stop-color="rgb(7.043457%, 37.826538%, 58.714294%)" offset="0.101562"/><stop stop-opacity="1" stop-color="rgb(6.982422%, 37.934875%, 58.39386%)" offset="0.109375"/><stop stop-opacity="1" stop-color="rgb(6.921387%, 38.041687%, 58.071899%)" offset="0.117188"/><stop stop-opacity="1" stop-color="rgb(6.860352%, 38.148499%, 57.749939%)" offset="0.125"/><stop stop-opacity="1" stop-color="rgb(6.799316%, 38.25531%, 57.429504%)" offset="0.132812"/><stop stop-opacity="1" stop-color="rgb(6.738281%, 38.362122%, 57.107544%)" offset="0.140625"/><stop stop-opacity="1" stop-color="rgb(6.677246%, 38.470459%, 56.787109%)" offset="0.148438"/><stop stop-opacity="1" stop-color="rgb(6.616211%, 38.577271%, 56.465149%)" offset="0.15625"/><stop stop-opacity="1" stop-color="rgb(6.555176%, 38.684082%, 56.143188%)" offset="0.164062"/><stop stop-opacity="1" stop-color="rgb(6.494141%, 38.790894%, 55.822754%)" offset="0.171875"/><stop stop-opacity="1" stop-color="rgb(6.433105%, 38.897705%, 55.500793%)" offset="0.179688"/><stop stop-opacity="1" stop-color="rgb(6.37207%, 39.006042%, 55.180359%)" offset="0.1875"/><stop stop-opacity="1" stop-color="rgb(6.311035%, 39.112854%, 54.858398%)" offset="0.195312"/><stop stop-opacity="1" stop-color="rgb(6.25%, 39.219666%, 54.536438%)" offset="0.203125"/><stop stop-opacity="1" stop-color="rgb(6.188965%, 39.326477%, 54.216003%)" offset="0.210938"/><stop stop-opacity="1" stop-color="rgb(6.12793%, 39.433289%, 53.894043%)" offset="0.21875"/><stop stop-opacity="1" stop-color="rgb(6.066895%, 39.541626%, 53.573608%)" offset="0.226563"/><stop stop-opacity="1" stop-color="rgb(6.005859%, 39.648438%, 53.251648%)" offset="0.234375"/><stop stop-opacity="1" stop-color="rgb(5.944824%, 39.755249%, 52.929688%)" offset="0.242188"/><stop stop-opacity="1" stop-color="rgb(5.883789%, 39.862061%, 52.609253%)" offset="0.25"/><stop stop-opacity="1" stop-color="rgb(5.822754%, 39.968872%, 52.287292%)" offset="0.257812"/><stop stop-opacity="1" stop-color="rgb(5.761719%, 40.077209%, 51.966858%)" offset="0.265625"/><stop stop-opacity="1" stop-color="rgb(5.700684%, 40.184021%, 51.644897%)" offset="0.273438"/><stop stop-opacity="1" stop-color="rgb(5.639648%, 40.290833%, 51.322937%)" offset="0.28125"/><stop stop-opacity="1" stop-color="rgb(5.580139%, 40.397644%, 51.002502%)" offset="0.289062"/><stop stop-opacity="1" stop-color="rgb(5.519104%, 40.504456%, 50.680542%)" offset="0.296875"/><stop stop-opacity="1" stop-color="rgb(5.458069%, 40.612793%, 50.360107%)" offset="0.304688"/><stop stop-opacity="1" stop-color="rgb(5.397034%, 40.719604%, 50.038147%)" offset="0.3125"/><stop stop-opacity="1" stop-color="rgb(5.335999%, 40.826416%, 49.716187%)" offset="0.320313"/><stop stop-opacity="1" stop-color="rgb(5.274963%, 40.933228%, 49.395752%)" offset="0.328125"/><stop stop-opacity="1" stop-color="rgb(5.213928%, 41.040039%, 49.073792%)" offset="0.335938"/><stop stop-opacity="1" stop-color="rgb(5.152893%, 41.148376%, 48.753357%)" offset="0.34375"/><stop stop-opacity="1" stop-color="rgb(5.091858%, 41.255188%, 48.431396%)" offset="0.351563"/><stop stop-opacity="1" stop-color="rgb(5.030823%, 41.362%, 48.109436%)" offset="0.359375"/><stop stop-opacity="1" stop-color="rgb(4.969788%, 41.468811%, 47.789001%)" offset="0.367188"/><stop stop-opacity="1" stop-color="rgb(4.908752%, 41.575623%, 47.467041%)" offset="0.375"/><stop stop-opacity="1" stop-color="rgb(4.847717%, 41.68396%, 47.146606%)" offset="0.382813"/><stop stop-opacity="1" stop-color="rgb(4.786682%, 41.790771%, 46.824646%)" offset="0.390625"/><stop stop-opacity="1" stop-color="rgb(4.725647%, 41.897583%, 46.502686%)" offset="0.398438"/><stop stop-opacity="1" stop-color="rgb(4.664612%, 42.004395%, 46.182251%)" offset="0.40625"/><stop stop-opacity="1" stop-color="rgb(4.603577%, 42.111206%, 45.860291%)" offset="0.414063"/><stop stop-opacity="1" stop-color="rgb(4.542542%, 42.219543%, 45.539856%)" offset="0.421875"/><stop stop-opacity="1" stop-color="rgb(4.481506%, 42.326355%, 45.217896%)" offset="0.429688"/><stop stop-opacity="1" stop-color="rgb(4.420471%, 42.433167%, 44.895935%)" offset="0.4375"/><stop stop-opacity="1" stop-color="rgb(4.359436%, 42.539978%, 44.5755%)" offset="0.445312"/><stop stop-opacity="1" stop-color="rgb(4.298401%, 42.64679%, 44.25354%)" offset="0.453125"/><stop stop-opacity="1" stop-color="rgb(4.237366%, 42.755127%, 43.933105%)" offset="0.460938"/><stop stop-opacity="1" stop-color="rgb(4.176331%, 42.861938%, 43.611145%)" offset="0.46875"/><stop stop-opacity="1" stop-color="rgb(4.115295%, 42.96875%, 43.289185%)" offset="0.476562"/><stop stop-opacity="1" stop-color="rgb(4.05426%, 43.075562%, 42.96875%)" offset="0.484375"/><stop stop-opacity="1" stop-color="rgb(3.993225%, 43.182373%, 42.64679%)" offset="0.492188"/><stop stop-opacity="1" stop-color="rgb(3.93219%, 43.29071%, 42.326355%)" offset="0.5"/><stop stop-opacity="1" stop-color="rgb(3.871155%, 43.397522%, 42.004395%)" offset="0.507812"/><stop stop-opacity="1" stop-color="rgb(3.81012%, 43.504333%, 41.682434%)" offset="0.515625"/><stop stop-opacity="1" stop-color="rgb(3.749084%, 43.611145%, 41.362%)" offset="0.523438"/><stop stop-opacity="1" stop-color="rgb(3.689575%, 43.717957%, 41.040039%)" offset="0.53125"/><stop stop-opacity="1" stop-color="rgb(3.62854%, 43.826294%, 40.719604%)" offset="0.539062"/><stop stop-opacity="1" stop-color="rgb(3.567505%, 43.933105%, 40.397644%)" offset="0.546875"/><stop stop-opacity="1" stop-color="rgb(3.50647%, 44.039917%, 40.075684%)" offset="0.554687"/><stop stop-opacity="1" stop-color="rgb(3.445435%, 44.146729%, 39.755249%)" offset="0.5625"/><stop stop-opacity="1" stop-color="rgb(3.384399%, 44.25354%, 39.433289%)" offset="0.570312"/><stop stop-opacity="1" stop-color="rgb(3.323364%, 44.361877%, 39.112854%)" offset="0.578125"/><stop stop-opacity="1" stop-color="rgb(3.262329%, 44.468689%, 38.790894%)" offset="0.585938"/><stop stop-opacity="1" stop-color="rgb(3.201294%, 44.5755%, 38.468933%)" offset="0.59375"/><stop stop-opacity="1" stop-color="rgb(3.140259%, 44.682312%, 38.148499%)" offset="0.601563"/><stop stop-opacity="1" stop-color="rgb(3.079224%, 44.789124%, 37.826538%)" offset="0.609375"/><stop stop-opacity="1" stop-color="rgb(3.018188%, 44.897461%, 37.506104%)" offset="0.617188"/><stop stop-opacity="1" stop-color="rgb(2.957153%, 45.004272%, 37.184143%)" offset="0.625"/><stop stop-opacity="1" stop-color="rgb(2.896118%, 45.111084%, 36.862183%)" offset="0.632813"/><stop stop-opacity="1" stop-color="rgb(2.835083%, 45.217896%, 36.541748%)" offset="0.640625"/><stop stop-opacity="1" stop-color="rgb(2.774048%, 45.324707%, 36.219788%)" offset="0.648438"/><stop stop-opacity="1" stop-color="rgb(2.713013%, 45.433044%, 35.899353%)" offset="0.65625"/><stop stop-opacity="1" stop-color="rgb(2.651978%, 45.539856%, 35.577393%)" offset="0.664063"/><stop stop-opacity="1" stop-color="rgb(2.590942%, 45.646667%, 35.255432%)" offset="0.671875"/><stop stop-opacity="1" stop-color="rgb(2.529907%, 45.753479%, 34.934998%)" offset="0.679688"/><stop stop-opacity="1" stop-color="rgb(2.468872%, 45.860291%, 34.613037%)" offset="0.6875"/><stop stop-opacity="1" stop-color="rgb(2.407837%, 45.968628%, 34.292603%)" offset="0.695312"/><stop stop-opacity="1" stop-color="rgb(2.346802%, 46.075439%, 33.970642%)" offset="0.703125"/><stop stop-opacity="1" stop-color="rgb(2.285767%, 46.182251%, 33.648682%)" offset="0.710938"/><stop stop-opacity="1" stop-color="rgb(2.224731%, 46.289062%, 33.328247%)" offset="0.71875"/><stop stop-opacity="1" stop-color="rgb(2.163696%, 46.395874%, 33.006287%)" offset="0.726563"/><stop stop-opacity="1" stop-color="rgb(2.102661%, 46.504211%, 32.685852%)" offset="0.734375"/><stop stop-opacity="1" stop-color="rgb(2.041626%, 46.611023%, 32.363892%)" offset="0.742188"/><stop stop-opacity="1" stop-color="rgb(1.980591%, 46.717834%, 32.041931%)" offset="0.75"/><stop stop-opacity="1" stop-color="rgb(1.919556%, 46.824646%, 31.721497%)" offset="0.757813"/><stop stop-opacity="1" stop-color="rgb(1.858521%, 46.931458%, 31.399536%)" offset="0.765625"/><stop stop-opacity="1" stop-color="rgb(1.799011%, 47.039795%, 31.079102%)" offset="0.773438"/><stop stop-opacity="1" stop-color="rgb(1.737976%, 47.146606%, 30.757141%)" offset="0.78125"/><stop stop-opacity="1" stop-color="rgb(1.676941%, 47.253418%, 30.435181%)" offset="0.789063"/><stop stop-opacity="1" stop-color="rgb(1.615906%, 47.360229%, 30.114746%)" offset="0.796875"/><stop stop-opacity="1" stop-color="rgb(1.554871%, 47.467041%, 29.792786%)" offset="0.804688"/><stop stop-opacity="1" stop-color="rgb(1.493835%, 47.575378%, 29.472351%)" offset="0.8125"/><stop stop-opacity="1" stop-color="rgb(1.4328%, 47.68219%, 29.150391%)" offset="0.820312"/><stop stop-opacity="1" stop-color="rgb(1.371765%, 47.789001%, 28.82843%)" offset="0.828125"/><stop stop-opacity="1" stop-color="rgb(1.31073%, 47.895813%, 28.507996%)" offset="0.835938"/><stop stop-opacity="1" stop-color="rgb(1.249695%, 48.002625%, 28.186035%)" offset="0.84375"/><stop stop-opacity="1" stop-color="rgb(1.18866%, 48.110962%, 27.865601%)" offset="0.851562"/><stop stop-opacity="1" stop-color="rgb(1.127625%, 48.217773%, 27.54364%)" offset="0.859375"/><stop stop-opacity="1" stop-color="rgb(1.066589%, 48.324585%, 27.22168%)" offset="0.867188"/><stop stop-opacity="1" stop-color="rgb(1.005554%, 48.431396%, 26.901245%)" offset="0.875"/><stop stop-opacity="1" stop-color="rgb(0.944519%, 48.538208%, 26.579285%)" offset="0.882813"/><stop stop-opacity="1" stop-color="rgb(0.883484%, 48.646545%, 26.25885%)" offset="0.890625"/><stop stop-opacity="1" stop-color="rgb(0.822449%, 48.753357%, 25.93689%)" offset="0.898438"/><stop stop-opacity="1" stop-color="rgb(0.761414%, 48.860168%, 25.614929%)" offset="0.90625"/><stop stop-opacity="1" stop-color="rgb(0.700378%, 48.96698%, 25.294495%)" offset="0.914062"/><stop stop-opacity="1" stop-color="rgb(0.639343%, 49.073792%, 24.972534%)" offset="0.921875"/><stop stop-opacity="1" stop-color="rgb(0.578308%, 49.182129%, 24.6521%)" offset="0.929688"/><stop stop-opacity="1" stop-color="rgb(0.517273%, 49.28894%, 24.330139%)" offset="0.9375"/><stop stop-opacity="1" stop-color="rgb(0.456238%, 49.395752%, 24.008179%)" offset="0.945312"/><stop stop-opacity="1" stop-color="rgb(0.395203%, 49.502563%, 23.687744%)" offset="0.953125"/><stop stop-opacity="1" stop-color="rgb(0.334167%, 49.609375%, 23.365784%)" offset="0.960938"/><stop stop-opacity="1" stop-color="rgb(0.273132%, 49.717712%, 23.045349%)" offset="0.96875"/><stop stop-opacity="1" stop-color="rgb(0.212097%, 49.824524%, 22.723389%)" offset="0.976562"/><stop stop-opacity="1" stop-color="rgb(0.151062%, 49.931335%, 22.401428%)" offset="0.984375"/><stop stop-opacity="1" stop-color="rgb(0.0900269%, 50.038147%, 22.080994%)" offset="0.992187"/><stop stop-opacity="1" stop-color="rgb(0.0289917%, 50.144958%, 21.759033%)" offset="1"/></linearGradient></defs><g clip-path="url(#id1)"><g clip-path="url(#id2)"><path fill="url(#id3)" d="M 13.175781 13.039062 L 13.175781 361.789062 L 361.648438 361.789062 L 361.648438 13.039062 Z M 13.175781 13.039062 " fill-rule="nonzero"/></g></g></svg>